<svg width="743" height="743" viewBox="0 0 743 743" fill="none" xmlns="http://www.w3.org/2000/svg">
<rect width="743" height="743" rx="20" fill="#40176C"/>
<path d="M321.363 373.126C328.086 373.126 333.542 378.582 333.542 385.305C333.542 392.028 328.086 397.485 321.363 397.485C314.64 397.485 309.184 392.028 309.184 385.305C309.184 378.582 314.64 373.126 321.363 373.126Z" fill="white"/>
<path d="M418.786 373.127C425.509 373.127 430.965 378.584 430.965 385.307C430.965 392.03 425.509 397.486 418.786 397.486C412.063 397.486 406.606 392.03 406.606 385.307C406.606 378.584 412.063 373.127 418.786 373.127Z" fill="white"/>
<path d="M288.649 336.644C261.822 370.421 268.813 438.789 268.586 438.886C268.691 439.641 268.813 440.388 268.927 441.143C246.655 448.004 224.326 444.756 209.84 430.27C186.293 406.723 192.399 362.431 223.489 331.341C227.224 327.606 231.154 324.236 235.222 321.232C236.221 322.596 237.301 323.895 238.47 325.113C245.323 332.258 254.953 336.708 265.63 336.708C270.031 336.708 274.253 335.945 278.183 334.556C281.277 335.652 284.557 336.351 287.959 336.602C288.901 336.562 289.786 336.521 290.647 336.464C290.614 336.546 290.574 336.627 290.533 336.7C289.9 336.701 289.275 336.684 288.649 336.644Z" fill="white"/>
<path d="M452.403 334.014C456.731 335.751 461.457 336.709 466.41 336.709C478.979 336.709 490.095 330.547 496.932 321.079C505.336 325.374 513.456 331.212 520.796 338.553C549.905 367.661 555.621 409.136 533.567 431.181C518.36 446.397 493.911 448.387 470.649 438.611C471.785 430.58 472.387 422.306 472.387 413.846C472.387 383.932 464.956 356.31 452.403 334.014Z" fill="white"/>
<path d="M383.884 494.92C383.884 493.207 384.574 491.534 385.784 490.324C386.994 489.115 388.675 488.424 390.379 488.424C392.085 488.424 393.765 489.115 394.975 490.324C396.185 491.534 396.875 493.207 396.875 494.92C396.875 496.633 396.185 498.306 394.975 499.516C393.765 500.726 392.084 501.416 390.379 501.416C388.674 501.416 386.994 500.726 385.784 499.516C384.573 498.306 383.884 496.633 383.884 494.92Z" fill="white"/>
<path d="M354.378 490.324C355.587 491.534 356.278 493.207 356.278 494.92C356.278 496.633 355.587 498.306 354.378 499.516C353.168 500.726 351.487 501.416 349.782 501.416C348.077 501.416 346.396 500.726 345.186 499.516C343.976 498.306 343.286 496.624 343.286 494.92C343.286 493.216 343.976 491.534 345.186 490.324C346.396 489.115 348.077 488.424 349.782 488.424C351.487 488.424 353.167 489.114 354.378 490.324Z" fill="white"/>
<path d="M498.788 451.109C488.948 451.109 478.523 448.965 468.133 444.599C464.826 443.209 463.271 439.401 464.661 436.093C466.051 432.787 469.857 431.232 473.167 432.622C494.788 441.707 516.174 439.398 528.975 426.589C538.17 417.396 542.061 403.836 539.934 388.402C537.714 372.301 529.286 356.228 516.204 343.145C509.523 336.464 502.045 330.986 493.978 326.863C490.783 325.23 489.517 321.317 491.151 318.122C492.783 314.928 496.695 313.661 499.891 315.294C509.17 320.037 517.749 326.317 525.391 333.959C540.465 349.032 550.2 367.737 552.805 386.629C555.501 406.187 550.301 423.641 538.163 435.775C528.043 445.897 514.129 451.109 498.788 451.109Z" fill="white"/>
<path d="M466.411 343.205C460.739 343.205 455.212 342.14 449.985 340.042C446.655 338.705 445.04 334.922 446.377 331.593C447.714 328.265 451.497 326.647 454.825 327.986C458.507 329.463 462.405 330.214 466.411 330.214C476.376 330.214 485.817 325.377 491.668 317.276C495.522 311.944 497.558 305.649 497.558 299.067C497.558 285.871 489.193 274.061 476.742 269.679C474.262 268.806 472.554 266.525 472.413 263.901C471.556 247.995 458.916 235.354 443.011 234.499C440.385 234.357 438.103 232.647 437.231 230.166C432.856 217.717 421.046 209.354 407.845 209.354C399.812 209.354 392.177 212.418 386.346 217.983C384.907 219.356 382.917 219.994 380.945 219.714C378.974 219.433 377.242 218.264 376.242 216.542C370.68 206.95 360.351 200.991 349.286 200.991C336.251 200.991 324.489 209.215 320.019 221.455C319.305 223.409 317.699 224.903 315.699 225.474C313.7 226.044 311.547 225.622 309.91 224.339C304.39 220.012 297.757 217.725 290.727 217.725C273.553 217.725 259.58 231.698 259.58 248.872C259.58 252.832 260.317 256.694 261.769 260.352C262.451 262.07 262.369 264 261.54 265.654C260.713 267.308 259.22 268.531 257.434 269.017C243.921 272.688 234.483 285.046 234.483 299.067C234.483 305.708 236.551 312.047 240.465 317.4C242.583 320.296 241.951 324.36 239.056 326.478C236.159 328.596 232.096 327.964 229.978 325.068C224.426 317.475 221.491 308.484 221.491 299.068C221.491 281.469 231.987 265.719 247.698 258.733C246.961 255.515 246.589 252.218 246.589 248.873C246.589 224.534 266.389 204.735 290.727 204.735C297.991 204.735 304.957 206.458 311.233 209.771C319.066 196.494 333.518 188 349.286 188C362.451 188 374.88 193.949 383.19 203.898C390.433 199.001 398.966 196.363 407.844 196.363C425.134 196.363 440.739 206.488 447.9 221.951C467.063 224.805 482.108 239.849 484.962 259.014C500.425 266.182 510.55 281.786 510.55 299.068C510.55 308.402 507.662 317.329 502.197 324.886C493.913 336.355 480.535 343.205 466.411 343.205Z" fill="white"/>
<path d="M307.035 339.496C304.585 339.496 302.239 338.102 301.139 335.734C299.628 332.48 301.041 328.618 304.295 327.107C304.938 326.809 305.509 326.511 306.037 326.198C306.084 326.17 306.132 326.143 306.18 326.116C306.739 325.804 307.342 325.431 308.024 324.973C311.003 322.975 315.039 323.77 317.037 326.749C319.035 329.728 318.239 333.764 315.26 335.762C314.307 336.401 313.43 336.944 312.58 337.421C311.697 337.94 310.776 338.42 309.766 338.89C308.881 339.301 307.95 339.496 307.035 339.496Z" fill="white"/>
<path d="M290.64 342.961C287.227 342.961 284.365 340.3 284.161 336.849C283.949 333.267 286.68 330.193 290.262 329.981C296.326 329.622 300.348 328.844 303.711 327.377C307 325.943 310.828 327.446 312.262 330.735C313.696 334.023 312.193 337.851 308.905 339.285C304.056 341.4 298.711 342.496 291.029 342.95C290.899 342.957 290.769 342.961 290.64 342.961Z" fill="white"/>
<path d="M247.009 451.079C230.654 451.079 215.897 445.515 205.245 434.865C192.385 422.003 186.877 403.494 189.739 382.747C192.51 362.667 202.863 342.779 218.894 326.749C222.787 322.856 226.982 319.242 231.361 316.007C232.751 314.982 234.492 314.55 236.2 314.81C237.907 315.071 239.441 316.001 240.461 317.395C241.31 318.555 242.216 319.638 243.153 320.615C249.09 326.805 257.071 330.212 265.628 330.212C269.178 330.212 272.672 329.613 276.017 328.432C277.419 327.936 278.948 327.937 280.35 328.433C282.823 329.309 285.42 329.868 288.074 330.095C288.817 330.062 289.526 330.028 290.217 329.983C292.448 329.841 294.589 330.842 295.9 332.648C297.211 334.453 297.504 336.806 296.675 338.877C296.543 339.206 296.386 339.536 296.205 339.859C294.78 342.418 291.881 343.637 289.158 343.05C288.855 343.065 288.549 343.078 288.234 343.092C287.98 343.103 287.728 343.099 287.476 343.08C284.309 342.845 281.192 342.276 278.179 341.383C274.105 342.592 269.893 343.203 265.627 343.203C253.767 343.203 242.691 338.587 234.344 330.188C232.18 332.007 230.084 333.928 228.079 335.933C199.575 364.439 193.452 404.698 214.43 425.676C226.616 437.862 246.274 441.324 267.011 434.934C270.442 433.878 274.075 435.801 275.132 439.229C276.188 442.658 274.264 446.293 270.836 447.349C262.717 449.853 254.687 451.079 247.009 451.079Z" fill="white"/>
<path d="M370.892 554.315C345.457 554.315 320.439 542.767 300.45 521.8C280.846 501.238 267.372 472.953 262.51 442.156L262.388 441.36C262.307 440.835 262.226 440.312 262.153 439.786C262.106 439.459 262.087 439.134 262.09 438.811C262.079 438.615 262.06 438.325 262.036 437.948C260.638 416.183 259.938 362.349 283.562 332.604C284.887 330.935 286.95 330.019 289.072 330.163C289.611 330.197 290.216 330.185 290.867 330.214C295.309 330.195 299.596 329.256 303.612 327.423C303.706 327.381 303.799 327.34 303.894 327.303C303.969 327.271 304.048 327.229 304.131 327.187C304.17 327.169 304.209 327.149 304.249 327.131C304.858 326.841 305.492 326.509 306.129 326.147C306.827 325.746 307.448 325.364 308.013 324.982C310.2 323.507 313.062 323.503 315.256 324.969C320.385 328.401 326.368 330.214 332.56 330.214C338.752 330.214 344.736 328.401 349.864 324.969C352.051 323.506 354.905 323.507 357.09 324.972C362.211 328.401 368.191 330.214 374.384 330.214C382.059 330.214 389.433 327.397 395.149 322.281C397.615 320.074 401.345 320.073 403.811 322.278C409.535 327.396 416.911 330.214 424.579 330.214C430.77 330.214 436.754 328.401 441.883 324.969C444.073 323.504 446.931 323.508 449.117 324.976C450.877 326.159 452.798 327.171 454.827 327.986C456.198 328.538 457.339 329.54 458.064 330.827C471.683 355.017 478.882 383.724 478.882 413.846C478.882 422.434 478.277 431.072 477.081 439.521C467.663 506.038 423.003 554.315 370.892 554.315ZM275.047 438.197C275.104 438.589 275.165 438.98 275.225 439.371L275.349 440.174C284.449 497.82 325.526 541.323 370.892 541.323C416.467 541.323 455.716 497.743 464.218 437.699C465.328 429.853 465.892 421.827 465.892 413.845C465.892 386.737 459.639 360.943 447.789 339.089C447.011 338.728 446.247 338.345 445.496 337.941C439.088 341.395 431.936 343.204 424.579 343.204C415.561 343.204 406.828 340.454 399.483 335.374C392.143 340.454 383.41 343.204 374.384 343.204C367.025 343.204 359.875 341.395 353.474 337.942C347.068 341.395 339.916 343.204 332.559 343.204C325.202 343.204 318.05 341.395 311.642 337.941C311.048 338.262 310.457 338.561 309.875 338.838C309.591 338.98 309.259 339.139 308.887 339.295C303.501 341.734 297.778 343.043 291.859 343.19C272.967 369.962 273.739 417.479 274.999 437.114C275.018 437.415 275.042 437.784 275.047 438.197ZM262.266 437.377C262.17 437.769 262.116 438.156 262.099 438.526C262.12 438.136 262.177 437.752 262.266 437.377ZM265.98 432.936C265.115 433.315 264.404 433.842 263.838 434.452C264.428 433.819 265.151 433.299 265.98 432.936Z" fill="white"/>
<path d="M395.238 499.387C395.238 501.854 384.866 519.28 370.067 519.28C355.269 519.28 344.896 501.854 344.896 499.387C344.896 496.921 355.269 510.349 370.067 510.349C384.866 510.349 395.238 496.921 395.238 499.387Z" fill="white"/>
</svg>
