<svg width="57" height="57" viewBox="0 0 57 57" fill="none" xmlns="http://www.w3.org/2000/svg">
<path d="M21.2283 28.6299C22.2642 28.6299 23.105 29.4707 23.105 30.5066C23.105 31.5425 22.2642 32.3833 21.2283 32.3833C20.1923 32.3833 19.3516 31.5425 19.3516 30.5066C19.3516 29.4707 20.1923 28.6299 21.2283 28.6299Z" fill="white"/>
<path d="M36.2405 28.6299C37.2764 28.6299 38.1172 29.4707 38.1172 30.5066C38.1172 31.5425 37.2764 32.3833 36.2405 32.3833C35.2045 32.3833 34.3638 31.5425 34.3638 30.5066C34.3638 29.4707 35.2045 28.6299 36.2405 28.6299Z" fill="white"/>
<path d="M16.1872 23.0091C12.0535 28.2138 13.1307 38.7485 13.0957 38.7635C13.1119 38.8798 13.1307 38.9949 13.1482 39.1112C9.71631 40.1684 6.27567 39.6679 4.04363 37.4359C0.415309 33.8076 1.35617 26.9826 6.1468 22.192C6.72233 21.6164 7.32788 21.0972 7.9547 20.6343C8.10859 20.8445 8.275 21.0447 8.45516 21.2323C9.51113 22.3333 10.995 23.019 12.6402 23.019C13.3184 23.019 13.969 22.9013 14.5745 22.6874C15.0512 22.8563 15.5567 22.9639 16.0809 23.0027C16.226 22.9964 16.3624 22.9902 16.495 22.9814C16.49 22.9939 16.4838 23.0064 16.4775 23.0177C16.3799 23.0178 16.2836 23.0153 16.1872 23.0091Z" fill="white"/>
<path d="M41.4204 22.6034C42.0873 22.8712 42.8154 23.0188 43.5786 23.0188C45.5154 23.0188 47.2282 22.0692 48.2818 20.6104C49.5767 21.2722 50.8279 22.1718 51.9589 23.3028C56.4443 27.7882 57.3251 34.179 53.9268 37.5759C51.5836 39.9205 47.8163 40.227 44.2319 38.7207C44.4069 37.4832 44.4996 36.2084 44.4996 34.9047C44.4996 30.2953 43.3547 26.0391 41.4204 22.6034Z" fill="white"/>
<path d="M30.8623 47.3974C30.8623 47.1334 30.9687 46.8757 31.1551 46.6893C31.3415 46.5028 31.6006 46.3965 31.8632 46.3965C32.126 46.3965 32.3849 46.5028 32.5714 46.6893C32.7578 46.8757 32.8641 47.1334 32.8641 47.3974C32.8641 47.6614 32.7578 47.9191 32.5714 48.1055C32.3849 48.292 32.1258 48.3983 31.8632 48.3983C31.6005 48.3983 31.3415 48.292 31.1551 48.1055C30.9685 47.9191 30.8623 47.6614 30.8623 47.3974Z" fill="white"/>
<path d="M26.3155 46.6893C26.5019 46.8757 26.6083 47.1334 26.6083 47.3974C26.6083 47.6614 26.5019 47.9191 26.3155 48.1055C26.1291 48.292 25.8701 48.3983 25.6074 48.3983C25.3446 48.3983 25.0856 48.292 24.8992 48.1055C24.7128 47.9191 24.6064 47.66 24.6064 47.3974C24.6064 47.1348 24.7128 46.8757 24.8992 46.6893C25.0856 46.5028 25.3446 46.3965 25.6074 46.3965C25.8701 46.3965 26.129 46.5027 26.3155 46.6893Z" fill="white"/>
<path d="M48.5675 40.6466C47.0512 40.6466 45.4449 40.3163 43.8438 39.6434C43.3342 39.4292 43.0947 38.8425 43.3089 38.3328C43.523 37.8234 44.1095 37.5838 44.6195 37.798C47.951 39.1979 51.2464 38.842 53.2189 36.8682C54.6358 35.4518 55.2353 33.3623 54.9075 30.9841C54.5655 28.5031 53.2669 26.0265 51.2511 24.0105C50.2216 22.981 49.0693 22.1369 47.8263 21.5016C47.334 21.25 47.1389 20.647 47.3907 20.1547C47.6421 19.6626 48.2449 19.4673 48.7374 19.7191C50.1672 20.4499 51.4892 21.4175 52.6667 22.5951C54.9894 24.9177 56.4895 27.7999 56.8908 30.7109C57.3062 33.7246 56.505 36.4141 54.6347 38.2838C53.0754 39.8435 50.9313 40.6466 48.5675 40.6466Z" fill="white"/>
<path d="M43.5787 24.0194C42.7048 24.0194 41.8532 23.8553 41.0477 23.5319C40.5346 23.326 40.2857 22.7431 40.4918 22.2301C40.6978 21.7173 41.2806 21.468 41.7935 21.6742C42.3609 21.9019 42.9615 22.0175 43.5789 22.0175C45.1143 22.0175 46.569 21.2722 47.4705 20.024C48.0645 19.2025 48.3782 18.2325 48.3782 17.2181C48.3782 15.1849 47.0892 13.3651 45.1707 12.6898C44.7886 12.5553 44.5253 12.2038 44.5036 11.7994C44.3716 9.34858 42.4239 7.4008 39.9731 7.26893C39.5684 7.24716 39.2169 6.98367 39.0825 6.60132C38.4084 4.68306 36.5886 3.39439 34.5544 3.39439C33.3166 3.39439 32.1401 3.86657 31.2417 4.72398C31.0199 4.93567 30.7133 5.03389 30.4094 4.99085C30.1057 4.94756 29.8388 4.76739 29.6848 4.50202C28.8277 3.02392 27.2362 2.10571 25.5311 2.10571C23.5225 2.10571 21.7101 3.37299 21.0214 5.25909C20.9114 5.56012 20.6639 5.79033 20.3558 5.87828C20.0477 5.96611 19.7159 5.90118 19.4637 5.7035C18.6132 5.03676 17.5911 4.68432 16.5079 4.68432C13.8614 4.68432 11.7085 6.83741 11.7085 9.4837C11.7085 10.0939 11.822 10.6889 12.0457 11.2526C12.1509 11.5174 12.1381 11.8147 12.0105 12.0696C11.883 12.3246 11.6529 12.513 11.3778 12.5878C9.29552 13.1536 7.84119 15.0577 7.84119 17.2183C7.84119 18.2415 8.15998 19.2182 8.76303 20.0431C9.08933 20.4894 8.99199 21.1156 8.54583 21.4419C8.09955 21.7683 7.47347 21.671 7.14705 21.2247C6.29152 20.0546 5.83936 18.6692 5.83936 17.2184C5.83936 14.5065 7.45658 12.0797 9.87755 11.0032C9.76394 10.5074 9.70664 9.9993 9.70664 9.48383C9.70664 5.73353 12.7577 2.68261 16.5079 2.68261C17.6271 2.68261 18.7005 2.94823 19.6675 3.4587C20.8745 1.41283 23.1015 0.104004 25.5311 0.104004C27.5597 0.104004 29.4748 1.02072 30.7554 2.55374C31.8714 1.79918 33.1862 1.39268 34.5542 1.39268C37.2184 1.39268 39.623 2.95286 40.7264 5.33541C43.6793 5.77519 45.9974 8.09343 46.4372 11.0465C48.8199 12.151 50.3801 14.5555 50.3801 17.2184C50.3801 18.6566 49.935 20.0322 49.093 21.1967C47.8165 22.9639 45.7551 24.0194 43.5787 24.0194Z" fill="white"/>
<path d="M19.0204 23.4482C18.6428 23.4482 18.2814 23.2336 18.1118 22.8686C17.8791 22.3673 18.0968 21.7721 18.5983 21.5393C18.6972 21.4933 18.7852 21.4475 18.8666 21.3993C18.8739 21.3949 18.8813 21.3907 18.8887 21.3866C18.9749 21.3386 19.0677 21.281 19.1728 21.2105C19.6318 20.9027 20.2537 21.0252 20.5616 21.4842C20.8695 21.9432 20.7469 22.5651 20.2878 22.873C20.1409 22.9714 20.0058 23.0551 19.8748 23.1286C19.7388 23.2085 19.5968 23.2826 19.4412 23.3549C19.3048 23.4182 19.1614 23.4482 19.0204 23.4482Z" fill="white"/>
<path d="M16.4937 23.9814C15.9679 23.9814 15.5268 23.5712 15.4954 23.0395C15.4628 22.4876 15.8837 22.0139 16.4355 21.9813C17.3699 21.926 17.9897 21.806 18.5079 21.58C19.0146 21.3591 19.6046 21.5907 19.8255 22.0974C20.0465 22.6041 19.8149 23.194 19.3082 23.415C18.5611 23.7408 17.7374 23.9097 16.5536 23.9796C16.5336 23.9807 16.5136 23.9814 16.4937 23.9814Z" fill="white"/>
<path d="M9.77112 40.6415C7.25094 40.6415 4.97699 39.7841 3.33574 38.143C1.35405 36.1612 0.5054 33.3092 0.946428 30.1123C1.37332 27.0182 2.96865 23.9537 5.43891 21.4835C6.03871 20.8837 6.68505 20.3268 7.35992 19.8284C7.57399 19.6704 7.84236 19.6039 8.10547 19.644C8.36859 19.6841 8.60493 19.8274 8.76207 20.0422C8.89294 20.221 9.03257 20.3879 9.17695 20.5384C10.0918 21.4922 11.3215 22.0173 12.64 22.0173C13.187 22.0173 13.7255 21.9249 14.2408 21.7429C14.4569 21.6666 14.6925 21.6667 14.9086 21.7431C15.2897 21.8781 15.6898 21.9642 16.0987 21.9992C16.2133 21.9941 16.3225 21.9889 16.429 21.9818C16.7728 21.9601 17.1026 22.1143 17.3046 22.3926C17.5066 22.6707 17.5517 23.0332 17.424 23.3524C17.4037 23.403 17.3794 23.4539 17.3517 23.5037C17.1321 23.898 16.6853 24.0859 16.2658 23.9954C16.2191 23.9977 16.1718 23.9997 16.1234 24.0018C16.0843 24.0036 16.0454 24.0029 16.0066 23.9999C15.5186 23.9638 15.0383 23.8761 14.574 23.7386C13.9463 23.9248 13.2972 24.019 12.6399 24.019C10.8124 24.019 9.10564 23.3077 7.81959 22.0135C7.48603 22.2938 7.16311 22.5898 6.8542 22.8988C2.46194 27.2912 1.51845 33.4946 4.75103 36.7272C6.62875 38.6049 9.65777 39.1383 12.8532 38.1536C13.3818 37.991 13.9417 38.2873 14.1045 38.8155C14.2672 39.3438 13.9708 39.904 13.4426 40.0668C12.1915 40.4525 10.9542 40.6414 9.77112 40.6415Z" fill="white"/>
<path d="M28.8604 56.5499C24.9411 56.5499 21.0862 54.7705 18.006 51.5396C14.9852 48.3712 12.9091 44.0129 12.1599 39.2673L12.1411 39.1447C12.1286 39.0639 12.1161 38.9833 12.1048 38.9022C12.0977 38.8518 12.0947 38.8016 12.0952 38.752C12.0936 38.7217 12.0906 38.677 12.0868 38.619C11.8715 35.2651 11.7637 26.9699 15.4039 22.3866C15.608 22.1295 15.9258 21.9883 16.2529 22.0104C16.3358 22.0158 16.4292 22.0139 16.5294 22.0183C17.2139 22.0154 17.8745 21.8706 18.4933 21.5883C18.5077 21.5818 18.5221 21.5755 18.5367 21.5697C18.5482 21.5649 18.5605 21.5584 18.5733 21.552C18.5793 21.5491 18.5853 21.5461 18.5914 21.5432C18.6854 21.4986 18.7829 21.4475 18.8812 21.3916C18.9888 21.3299 19.0843 21.271 19.1714 21.2122C19.5085 20.9848 19.9494 20.9842 20.2874 21.2102C21.0778 21.7389 21.9998 22.0184 22.9539 22.0184C23.908 22.0184 24.83 21.739 25.6202 21.2102C25.9571 20.9847 26.3969 20.9848 26.7337 21.2105C27.5227 21.739 28.4441 22.0184 29.3984 22.0184C30.5811 22.0184 31.7174 21.5843 32.5981 20.7959C32.978 20.4558 33.5528 20.4557 33.9328 20.7955C34.8148 21.5841 35.9514 22.0184 37.133 22.0184C38.087 22.0184 39.0089 21.739 39.7993 21.2102C40.1368 20.9843 40.5771 20.985 40.9139 21.2112C41.1852 21.3935 41.4812 21.5495 41.7939 21.6751C42.005 21.76 42.181 21.9144 42.2926 22.1127C44.3911 25.8403 45.5005 30.2637 45.5005 34.9051C45.5005 36.2284 45.4072 37.5595 45.2229 38.8613C43.7717 49.1108 36.8901 56.5499 28.8604 56.5499ZM14.0918 38.6572C14.1005 38.7177 14.1099 38.778 14.1192 38.8382L14.1382 38.962C15.5405 47.8445 21.87 54.5479 28.8604 54.5479C35.8829 54.5479 41.9309 47.8326 43.2409 38.5805C43.412 37.3716 43.4988 36.1348 43.4988 34.9049C43.4988 30.7279 42.5353 26.7534 40.7094 23.3859C40.5895 23.3302 40.4718 23.2712 40.356 23.209C39.3686 23.7412 38.2666 24.02 37.133 24.02C35.7433 24.02 34.3977 23.5962 33.2659 22.8135C32.1349 23.5962 30.7893 24.02 29.3984 24.02C28.2645 24.02 27.1629 23.7412 26.1765 23.2091C25.1893 23.7412 24.0873 24.02 22.9538 24.02C21.8201 24.02 20.718 23.7412 19.7307 23.209C19.6391 23.2584 19.548 23.3046 19.4583 23.3472C19.4145 23.369 19.3635 23.3935 19.306 23.4176C18.4762 23.7934 17.5944 23.9951 16.6823 24.0177C13.7712 28.1431 13.8902 35.4649 14.0844 38.4905C14.0873 38.5369 14.091 38.5937 14.0918 38.6572ZM12.1224 38.531C12.1076 38.5913 12.0992 38.651 12.0966 38.708C12.0998 38.6479 12.1086 38.5887 12.1224 38.531ZM12.6946 37.8466C12.5613 37.9051 12.4518 37.9863 12.3646 38.0802C12.4555 37.9827 12.5669 37.9025 12.6946 37.8466Z" fill="white"/>
</svg>
